<?xml version="1.0" encoding="UTF-8"?>
<svg version="1.1" xmlns="http://www.w3.org/2000/svg" width="497" height="527">
<path d="M0 0 C0.3510377 15.22886804 0.61521649 30.4575494 0.77718258 45.68955898 C0.85440326 52.76308681 0.95957799 59.83409572 1.1315918 66.90600586 C1.29758778 73.7337878 1.38430697 80.55895507 1.42315865 87.38862801 C1.45083531 89.9912741 1.50488916 92.59377995 1.58595085 95.19531059 C2.18127554 115.09626297 2.18127554 115.09626297 -1.45020676 119.93053055 C-4.95732978 122.99473994 -8.80048369 124.67365538 -13.14800835 126.22381783 C-18.06661063 128.28523717 -22.03602645 132.51558833 -26 136 C-26.85207031 136.71929687 -27.70414063 137.43859375 -28.58203125 138.1796875 C-54.17249118 160.27160529 -70.06256505 194.55927603 -73 228 C-74.85259539 265.88844791 -64.88937718 300.93841508 -40 330 C-39.27941406 330.84304688 -38.55882812 331.68609375 -37.81640625 332.5546875 C-14.71916963 358.89434382 18.07863788 375.0575192 53 378 C67.55143048 378.70510494 81.76127825 378.15106194 96 375 C97.03568115 374.77449463 97.03568115 374.77449463 98.09228516 374.54443359 C116.89513909 370.23628505 135.05927641 361.13792522 150 349 C150.57508301 348.54544434 151.15016602 348.09088867 151.74267578 347.62255859 C180.82935655 324.52594338 198.26887423 290.82420674 202.53125 254.0859375 C206.14432573 217.83200718 195.24088433 181.95803482 172.75 153.375 C162.64802596 141.56865072 151.359887 129.67539405 137.28174114 122.64195919 C129.61316225 118.53568732 129.61316225 118.53568732 127.99958229 114.49441719 C127.64451535 111.43479895 127.63732368 108.54339635 127.7512207 105.46508789 C127.74881126 103.75180298 127.74881126 103.75180298 127.74635315 102.00390625 C127.75399701 98.24112267 127.83943862 94.48438771 127.92578125 90.72265625 C127.94630518 88.10952529 127.96195968 85.49635192 127.97294617 82.88316345 C128.00706218 76.7164407 128.09721795 70.55187721 128.20779055 64.38610309 C128.3309814 57.36340596 128.39128066 50.34060259 128.44644034 43.31709301 C128.56124902 28.87695088 128.75457826 14.43850564 129 0 C131.71991752 0.79055477 134.439117 1.58344733 137.15795898 2.37768555 C137.92292442 2.59976433 138.68788986 2.82184311 139.47603607 3.05065155 C145.1226705 4.70298957 150.62048699 6.56957141 156.0625 8.8125 C157.31208496 9.32115601 157.31208496 9.32115601 158.58691406 9.84008789 C166.60521986 13.15808671 174.34860726 16.91298032 182 21 C182.66483398 21.35175293 183.32966797 21.70350586 184.01464844 22.06591797 C197.70830662 29.35849562 210.07810511 38.06508759 222 48 C222.804375 48.66902344 222.804375 48.66902344 223.625 49.3515625 C234.19086483 58.17217287 244.18444485 67.39323643 253 78 C253.42506836 78.50595703 253.85013672 79.01191406 254.28808594 79.53320312 C291.79685663 124.3789674 312.20777448 180.80965102 312.25 239.1875 C312.25067474 240.02870392 312.25134949 240.86990784 312.25204468 241.73660278 C312.23433678 255.68562475 311.49161893 269.24784706 309 283 C308.83902832 283.92135742 308.67805664 284.84271484 308.51220703 285.79199219 C298.0798469 343.77627241 265.79161619 398.82091532 219 435 C218.40703125 435.4640625 217.8140625 435.928125 217.203125 436.40625 C207.86626925 443.69355205 198.36551465 450.26681073 188 456 C187.15550293 456.46937988 186.31100586 456.93875977 185.44091797 457.42236328 C172.01971208 464.81626651 158.5172781 471.0869351 144 476 C142.7934375 476.41306396 142.7934375 476.41306396 141.5625 476.83447266 C78.68835105 498.000912 9.67970301 491.54376601 -49.44140625 462.3359375 C-65.10581471 454.42736595 -79.37880317 445.03758446 -93 434 C-93.54978516 433.55462891 -94.09957031 433.10925781 -94.66601562 432.65039062 C-108.7829215 421.10611581 -121.85825941 408.43524336 -132.70556641 393.74316406 C-134.02587785 391.96515129 -135.3752701 390.21246329 -136.73046875 388.4609375 C-159.25361319 359.01003928 -174.26421039 323.41278505 -181.3125 287.125 C-181.53341309 285.98816772 -181.53341309 285.98816772 -181.75878906 284.82836914 C-184.4091325 270.07923894 -185.38368132 255.33982558 -185.3125 240.375 C-185.31034485 239.55028198 -185.3081897 238.72556396 -185.30596924 237.87585449 C-185.10336635 189.27224033 -170.87356843 138.65072871 -142 99 C-141.28199219 98.01 -140.56398437 97.02 -139.82421875 96 C-111.10320085 57.11005521 -52.75922962 0 0 0 Z " fill="#53D3CB" transform="translate(185,38)"/>
<path d="M0 0 C6.76403855 5.51657242 10.73690938 12.89279234 12.6875 21.3125 C13.11913481 26.1218158 13.10890362 30.92099346 13.09155273 35.74560547 C13.09726475 37.18720018 13.10423221 38.62879037 13.11235046 40.07037354 C13.13020663 43.96308292 13.12912766 47.85556595 13.12340808 51.74830389 C13.12030485 55.0084856 13.12642132 58.26862453 13.13244683 61.52880013 C13.14646606 69.22577966 13.14495287 76.92264814 13.13354492 84.61962891 C13.12206976 92.53646062 13.13613505 100.45295332 13.1629414 108.36974037 C13.1851585 115.1887451 13.19172218 122.00764389 13.18586498 128.82668221 C13.1825081 132.88972416 13.18482522 136.95254894 13.20211601 141.01556015 C13.2176791 144.83906013 13.21352717 148.66206135 13.19481087 152.4855423 C13.1911505 153.88062831 13.19415811 155.27575206 13.20469666 156.67080307 C13.28258685 167.84329041 11.66822428 177.6575102 4.44921875 186.53125 C-2.54972078 193.60778309 -11.34602996 197.63543005 -21.2644043 197.78076172 C-22.06402588 197.77061035 -22.86364746 197.76045898 -23.6875 197.75 C-24.94203979 197.73864014 -24.94203979 197.73864014 -26.22192383 197.72705078 C-32.58704064 197.55731433 -37.79518677 196.66043487 -43.3125 193.3125 C-44.38177734 192.67634766 -44.38177734 192.67634766 -45.47265625 192.02734375 C-53.51898054 186.62803455 -58.15179666 178.63915741 -60.3125 169.3125 C-60.74413481 164.5031842 -60.73390362 159.70400654 -60.71655273 154.87939453 C-60.72226475 153.43779982 -60.72923221 151.99620963 -60.73735046 150.55462646 C-60.75520663 146.66191708 -60.75412766 142.76943405 -60.74840808 138.87669611 C-60.74530485 135.6165144 -60.75142132 132.35637547 -60.75744683 129.09619987 C-60.77146606 121.39922034 -60.76995287 113.70235186 -60.75854492 106.00537109 C-60.74706976 98.08853938 -60.76113505 90.17204668 -60.7879414 82.25525963 C-60.8101585 75.4362549 -60.81672218 68.61735611 -60.81086498 61.79831779 C-60.8075081 57.73527584 -60.80982522 53.67245106 -60.82711601 49.60943985 C-60.8426791 45.78593987 -60.83852717 41.96293865 -60.81981087 38.1394577 C-60.8161505 36.74437169 -60.81915811 35.34924794 -60.82969666 33.95419693 C-60.90754938 22.78708349 -59.29909091 12.9571768 -52.0703125 4.09375 C-38.27711481 -9.883357 -15.94291114 -10.75846823 0 0 Z " fill="#45D2DA" transform="translate(273.3125,6.6875)"/>
</svg>
