<?xml version="1.0" standalone="no"?>
<!DOCTYPE svg PUBLIC "-//W3C//DTD SVG 20010904//EN"
 "http://www.w3.org/TR/2001/REC-SVG-20010904/DTD/svg10.dtd">
<svg version="1.0" xmlns="http://www.w3.org/2000/svg"
 width="300.000000pt" height="318.000000pt" viewBox="0 0 300.000000 318.000000"
 preserveAspectRatio="xMidYMid meet">
<metadata>
Created by potrace 1.10, written by Peter Selinger 2001-2011
</metadata>
<g transform="translate(0.000000,318.000000) scale(0.100000,-0.100000)"
fill="#000000" stroke="none">
<path d="M1405 3156 c-42 -19 -74 -52 -96 -100 -17 -38 -19 -73 -19 -491 0
-418 2 -453 19 -491 71 -157 308 -166 388 -14 l24 44 -3 471 -3 471 -27 41
c-30 46 -102 86 -145 81 -26 -3 -23 -5 28 -30 71 -33 106 -74 115 -136 4 -26
8 -236 8 -467 1 -394 0 -422 -18 -458 -50 -100 -207 -130 -292 -55 -57 50 -66
77 -70 217 -7 210 -6 621 2 706 10 116 33 152 127 195 26 12 47 24 47 26 0 9
-57 2 -85 -10z"/>
<path d="M1010 2915 c-122 -44 -238 -103 -353 -179 -124 -81 -312 -270 -396
-396 -141 -213 -229 -456 -245 -675 l-5 -70 19 90 c10 50 21 104 23 120 9 59
46 176 83 262 121 284 288 485 554 669 110 75 345 180 387 172 14 -3 16 -41
15 -321 -1 -339 0 -335 -51 -362 -46 -24 -159 -128 -213 -195 -209 -263 -237
-677 -64 -965 94 -157 234 -285 381 -349 22 -9 47 -21 57 -26 47 -26 201 -53
303 -54 615 -6 1040 618 810 1189 -64 157 -171 292 -312 393 l-68 48 -3 309
c-1 170 1 312 5 316 17 16 270 -93 356 -154 82 -57 218 -171 268 -223 221
-231 355 -522 403 -874 10 -67 26 -86 26 -30 0 147 -70 404 -155 569 -145 281
-375 511 -654 655 -77 39 -248 106 -272 106 -5 0 -9 -142 -9 -347 l1 -348 65
-40 c72 -44 188 -155 235 -225 188 -279 199 -627 28 -912 -56 -94 -194 -232
-285 -286 -248 -147 -541 -161 -800 -37 -291 140 -474 426 -476 745 -1 143 18
237 73 359 62 137 190 285 312 361 l56 35 3 353 c2 193 1 352 -2 352 -3 -1
-48 -16 -100 -35z"/>
<path d="M2973 1395 c-7 -27 -17 -82 -22 -120 -33 -224 -163 -522 -303 -691
-245 -297 -554 -473 -947 -539 -79 -13 -146 -27 -150 -31 -11 -12 182 7 269
26 546 123 982 537 1124 1069 27 100 50 259 44 306 -3 27 -5 25 -15 -20z"/>
<path d="M14 1335 c32 -329 185 -644 431 -890 211 -211 472 -352 758 -410 90
-18 279 -31 233 -16 -16 6 -47 12 -70 15 -109 13 -149 21 -247 47 -257 68
-484 201 -669 389 -141 144 -251 313 -323 495 -38 94 -81 248 -91 325 -16 121
-33 154 -22 45z"/>
</g>
</svg>
